<svg width="128" height="21" viewBox="0 0 128 21" fill="none" xmlns="http://www.w3.org/2000/svg">
<path fill-rule="evenodd" clip-rule="evenodd" d="M17.5206 0H29.3656C31.49 0 33.228 1.65363 33.228 3.67472V4.33833C33.228 5.80125 32.3173 7.07142 31.0087 7.66154L33.3114 10.8911H28.785L26.733 8.01305H21.1256V10.8911H17.5206V8.01305V0ZM21.1364 2.67951H28.2794C28.9831 2.67951 29.5588 3.22719 29.5588 3.89667V4.11643C29.5588 4.78587 28.9831 5.33355 28.2794 5.33355H21.1364V2.67951Z" fill="white"/>
<path fill-rule="evenodd" clip-rule="evenodd" d="M15.7182 0H3.86245C1.73809 0 0 1.65363 0 3.67472V7.34962C0 9.37076 1.73809 11.0244 3.86245 11.0244H15.7182V8.33884H5.56999C4.48061 8.33884 3.58933 7.49087 3.58933 6.45442V4.56992C3.58933 3.53347 4.48061 2.68546 5.56999 2.68546H15.7182V0Z" fill="white"/>
<path fill-rule="evenodd" clip-rule="evenodd" d="M40.954 10.8911H44.559V5.94575H44.559L50.4824 0H46.8774L42.7565 4.13647L38.6356 0H35.0306L40.954 5.94575V10.8911Z" fill="white"/>
<path fill-rule="evenodd" clip-rule="evenodd" d="M58.336 10.8759H61.9409V2.57233H67.9922V0H52.2848V2.57233H58.336V10.8759Z" fill="white"/>
<path fill-rule="evenodd" clip-rule="evenodd" d="M69.7947 8.30361V10.8759H85.5021V8.30361H69.7947ZM69.7947 4.1518V6.72413H85.5021V4.1518H69.7947ZM69.7947 0V2.57233H85.5021V0H69.7947Z" fill="white"/>
<path fill-rule="evenodd" clip-rule="evenodd" d="M103.023 0H91.1669C89.0425 0 87.3044 1.65363 87.3044 3.67472V7.34962C87.3044 9.37076 89.0425 11.0244 91.1669 11.0244H103.023V8.33884H92.8744C91.7851 8.33884 90.8937 7.49087 90.8937 6.45442V4.56992C90.8937 3.53347 91.7851 2.68546 92.8744 2.68546H103.023V0Z" fill="white"/>
<path fill-rule="evenodd" clip-rule="evenodd" d="M114.632 20.3337H106.628V12.7954H108.43V17.4062L115.325 10.8462L116.6 12.0588L109.734 18.5907H114.632V20.3337Z" fill="#F6AC21"/>
<path fill-rule="evenodd" clip-rule="evenodd" d="M128 12.7954V20.3338H120.157V18.5908H124.893L118.023 12.0546L119.298 10.842L126.197 17.4062V12.7954H128Z" fill="#ACCA07"/>
<path fill-rule="evenodd" clip-rule="evenodd" d="M120.157 0H128V7.53837H126.197V2.92753L119.302 9.48757L118.028 8.27494L124.893 1.74298H120.157V0Z" fill="#80C6E7"/>
<path fill-rule="evenodd" clip-rule="evenodd" d="M109.734 1.74298L116.604 8.27921L115.33 9.49184L108.43 2.92753V7.53837H106.628V0H114.632V1.74298H109.734Z" fill="#D50723"/>
<path d="M82.0923 18.1488C82.0923 17.7138 82.1612 17.3483 82.2979 17.0524C82.3992 16.8349 82.539 16.6392 82.7155 16.4664C82.8919 16.2936 83.085 16.1655 83.2948 16.081C83.5746 15.9688 83.8972 15.9122 84.2625 15.9122C84.9243 15.9122 85.4526 16.1078 85.8503 16.4982C86.247 16.8895 86.4453 17.4328 86.4453 18.1289C86.4453 18.8192 86.248 19.3595 85.8545 19.7488C85.4609 20.1391 84.9337 20.3338 84.275 20.3338C83.608 20.3338 83.0767 20.1401 82.6831 19.7518C82.2896 19.3644 82.0923 18.8301 82.0923 18.1488ZM83.0255 18.12C83.0255 18.6037 83.1435 18.9701 83.3783 19.2204C83.6132 19.4697 83.9118 19.5949 84.273 19.5949C84.6352 19.5949 84.9317 19.4707 85.1644 19.2234C85.3962 18.9751 85.5121 18.6037 85.5121 18.1081C85.5121 17.6185 85.3993 17.253 85.1728 17.0126C84.9473 16.7713 84.6477 16.6511 84.273 16.6511C83.8993 16.6511 83.5976 16.7733 83.369 17.0166C83.1403 17.2609 83.0255 17.6284 83.0255 18.12Z" fill="white"/>
<path d="M42.5667 18.1488C42.5667 17.7138 42.6355 17.3483 42.7723 17.0524C42.8735 16.8349 43.0134 16.6392 43.1899 16.4664C43.3662 16.2936 43.5594 16.1655 43.7692 16.081C44.0489 15.9688 44.3715 15.9122 44.7369 15.9122C45.3987 15.9122 45.9269 16.1078 46.3246 16.4982C46.7213 16.8895 46.9197 17.4328 46.9197 18.1289C46.9197 18.8192 46.7223 19.3595 46.3288 19.7488C45.9353 20.1391 45.4081 20.3338 44.7494 20.3338C44.0824 20.3338 43.551 20.1401 43.1575 19.7518C42.7639 19.3644 42.5667 18.8301 42.5667 18.1488ZM43.4999 18.12C43.4999 18.6037 43.6178 18.9701 43.8527 19.2204C44.0876 19.4697 44.3861 19.5949 44.7473 19.5949C45.1096 19.5949 45.406 19.4707 45.6388 19.2234C45.8705 18.9751 45.9864 18.6037 45.9864 18.1081C45.9864 17.6185 45.8737 17.253 45.6472 17.0126C45.4217 16.7713 45.1221 16.6511 44.7473 16.6511C44.3736 16.6511 44.0719 16.7733 43.8433 17.0166C43.6147 17.2609 43.4999 17.6284 43.4999 18.12Z" fill="white"/>
<path d="M99.7327 18.8738L100.616 18.7904C100.669 19.0715 100.775 19.277 100.937 19.4091C101.099 19.5412 101.317 19.6068 101.592 19.6068C101.882 19.6068 102.101 19.5482 102.248 19.431C102.396 19.3138 102.47 19.1768 102.47 19.0198C102.47 18.9185 102.438 18.8331 102.377 18.7616C102.315 18.6911 102.207 18.6295 102.052 18.5778C101.947 18.5421 101.707 18.4805 101.331 18.3911C100.848 18.2759 100.508 18.1349 100.313 17.9671C100.039 17.7317 99.9018 17.4447 99.9018 17.106C99.9018 16.8885 99.9665 16.6839 100.095 16.4942C100.224 16.3045 100.41 16.1605 100.653 16.0612C100.897 15.9619 101.189 15.9122 101.533 15.9122C102.094 15.9122 102.517 16.0304 102.8 16.2678C103.083 16.5051 103.232 16.821 103.246 17.2172L102.338 17.247C102.3 17.0265 102.217 16.8686 102.091 16.7723C101.964 16.676 101.774 16.6273 101.522 16.6273C101.261 16.6273 101.056 16.6789 100.909 16.7822C100.814 16.8488 100.766 16.9371 100.766 17.0484C100.766 17.1497 100.811 17.2361 100.901 17.3076C101.015 17.4 101.291 17.4953 101.731 17.5946C102.17 17.693 102.495 17.7963 102.705 17.9015C102.915 18.0078 103.08 18.1518 103.199 18.3356C103.318 18.5193 103.378 18.7457 103.378 19.0148C103.378 19.2592 103.307 19.4886 103.164 19.7021C103.021 19.9156 102.819 20.0746 102.558 20.1778C102.297 20.2821 101.972 20.3338 101.582 20.3338C101.016 20.3338 100.58 20.2096 100.277 19.9603C99.9728 19.7121 99.7922 19.3496 99.7327 18.8738Z" fill="white"/>
<path d="M91.2997 20.2566V15.99H92.1786L94.0242 18.8493V15.99H94.8635V20.2566H93.9564L92.139 17.4519V20.2566H91.2997Z" fill="white"/>
<path d="M76.361 20.2566V15.99H77.2692V20.2566H76.361Z" fill="white"/>
<path d="M69.427 20.2566V16.711H68.0991V15.99H71.6567V16.711H70.3352V20.2566H69.427Z" fill="white"/>
<path d="M59.7477 15.99H60.6559V18.3021C60.6559 18.6696 60.6673 18.9069 60.6893 19.0152C60.7279 19.19 60.8187 19.331 60.9628 19.4363C61.1079 19.5425 61.3052 19.5952 61.5557 19.5952C61.8094 19.5952 62.0015 19.5455 62.1309 19.4452C62.2603 19.3449 62.3376 19.2228 62.3637 19.0768C62.3898 18.9307 62.4033 18.6894 62.4033 18.3517V15.99H63.3115V18.2335C63.3115 18.746 63.2875 19.1085 63.2385 19.3201C63.1894 19.5316 63.0996 19.7104 62.9681 19.8564C62.8376 20.0024 62.6622 20.1176 62.443 20.204C62.2227 20.2904 61.9367 20.3341 61.5829 20.3341C61.1559 20.3341 60.8323 20.2874 60.612 20.193C60.3918 20.0987 60.2174 19.9766 60.089 19.8256C59.9606 19.6746 59.8771 19.5177 59.8364 19.3518C59.7769 19.1075 59.7477 18.746 59.7477 18.2683V15.99Z" fill="white"/>
<path d="M51.7992 20.2567V16.0258H52.7074V19.5357H54.9559V20.2567H51.7992Z" fill="white"/>
<path d="M34.1912 18.8738L35.0743 18.7904C35.1275 19.0714 35.234 19.277 35.3958 19.4091C35.5576 19.5412 35.7758 19.6068 36.0503 19.6068C36.3405 19.6068 36.5597 19.5482 36.7069 19.431C36.8541 19.3138 36.9282 19.1767 36.9282 19.0198C36.9282 18.9185 36.8969 18.8331 36.8353 18.7615C36.7737 18.6911 36.6652 18.6295 36.5107 18.5778C36.4052 18.5421 36.1651 18.4805 35.7894 18.3911C35.306 18.2759 34.9668 18.1349 34.7716 17.967C34.497 17.7317 34.3603 17.4446 34.3603 17.106C34.3603 16.8885 34.425 16.6838 34.5534 16.4942C34.6829 16.3045 34.8686 16.1605 35.1119 16.0612C35.3551 15.9618 35.6474 15.9122 35.9919 15.9122C36.5525 15.9122 36.9752 16.0304 37.2581 16.2677C37.542 16.5051 37.6903 16.8209 37.7049 17.2172L36.7967 17.247C36.7581 17.0265 36.6756 16.8686 36.5493 16.7723C36.423 16.6759 36.233 16.6272 35.9804 16.6272C35.7194 16.6272 35.5148 16.6789 35.3676 16.7822C35.2726 16.8487 35.2246 16.9371 35.2246 17.0484C35.2246 17.1496 35.2695 17.2361 35.3593 17.3076C35.4731 17.3999 35.7497 17.4953 36.1892 17.5946C36.6286 17.6929 36.9533 17.7962 37.1631 17.9015C37.374 18.0077 37.5389 18.1517 37.6579 18.3355C37.7769 18.5193 37.8364 18.7457 37.8364 19.0148C37.8364 19.2592 37.7655 19.4886 37.6224 19.7021C37.4794 19.9156 37.2779 20.0746 37.017 20.1778C36.756 20.2821 36.4303 20.3337 36.0409 20.3337C35.4741 20.3337 35.0388 20.2096 34.735 19.9603C34.4313 19.712 34.2507 19.3495 34.1912 18.8738Z" fill="white"/>
</svg>
