<svg width="190" height="30" viewBox="0 0 190 30" fill="none" xmlns="http://www.w3.org/2000/svg">
<path fill-rule="evenodd" clip-rule="evenodd" d="M26.5629 0H44.0384C47.1726 0 49.7369 2.43969 49.7369 5.42153V6.40059C49.7369 8.55892 48.3932 10.4329 46.4626 11.3035L49.8599 16.0682H43.1819L40.1543 11.8221H31.8815V16.0682H26.5629V11.8221V0ZM31.8975 3.95323H42.4359C43.4741 3.95323 44.3234 4.76126 44.3234 5.74897V6.07321C44.3234 7.06086 43.4741 7.86889 42.4359 7.86889H31.8975V3.95323Z" fill="black"/>
<path fill-rule="evenodd" clip-rule="evenodd" d="M23.9036 0H6.41211C3.27792 0 0.713623 2.43969 0.713623 5.42153V10.8433C0.713623 13.8252 3.27792 16.2649 6.41211 16.2649H23.9036V12.3028H8.93135C7.32411 12.3028 6.00917 11.0517 6.00917 9.52258V6.74226C6.00917 5.21313 7.32411 3.96201 8.93135 3.96201H23.9036V0Z" fill="black"/>
<path fill-rule="evenodd" clip-rule="evenodd" d="M61.1353 16.0682H66.4539V8.77211H66.454L75.1931 0H69.8745L63.7947 6.10277L57.7148 0H52.3962L61.1353 8.77211V16.0682Z" fill="black"/>
<path fill-rule="evenodd" clip-rule="evenodd" d="M86.7801 16.0459H92.0986V3.79511H101.026V0H77.8524V3.79511H86.7801V16.0459Z" fill="black"/>
<path fill-rule="evenodd" clip-rule="evenodd" d="M103.686 12.2508V16.0459H126.86V12.2508H103.686ZM103.686 6.12539V9.9205H126.86V6.12539H103.686ZM103.686 0V3.79511H126.86V0H103.686Z" fill="black"/>
<path fill-rule="evenodd" clip-rule="evenodd" d="M152.709 0H135.217C132.083 0 129.519 2.43969 129.519 5.42153V10.8433C129.519 13.8252 132.083 16.2649 135.217 16.2649H152.709V12.3028H137.737C136.129 12.3028 134.814 11.0517 134.814 9.52258V6.74226C134.814 5.21313 136.129 3.96201 137.737 3.96201H152.709V0Z" fill="black"/>
<path fill-rule="evenodd" clip-rule="evenodd" d="M169.836 29.9995H158.028V18.8777H160.687V25.6804L170.86 16.002L172.74 17.791L162.611 27.428H169.836V29.9995Z" fill="#F6AC21"/>
<path fill-rule="evenodd" clip-rule="evenodd" d="M189.559 18.8778V29.9996H177.988V27.428H184.976L174.84 17.7848L176.721 15.9958L186.9 25.6804V18.8778H189.559Z" fill="#ACCA07"/>
<path fill-rule="evenodd" clip-rule="evenodd" d="M177.988 0H189.559V11.1218H186.9V4.31915L176.727 13.9976L174.847 12.2085L184.976 2.57152H177.988V0Z" fill="#80C6E7"/>
<path fill-rule="evenodd" clip-rule="evenodd" d="M162.611 2.57152L172.747 12.2148L170.866 14.0038L160.687 4.31915V11.1218H158.028V0H169.836V2.57152H162.611Z" fill="#D50723"/>
<path d="M121.829 26.776C121.829 26.1342 121.931 25.595 122.132 25.1583C122.282 24.8374 122.488 24.5488 122.748 24.2938C123.009 24.0389 123.294 23.8499 123.603 23.7253C124.016 23.5597 124.492 23.4762 125.031 23.4762C126.007 23.4762 126.787 23.7648 127.373 24.3407C127.959 24.918 128.251 25.7196 128.251 26.7467C128.251 27.7651 127.96 28.5622 127.379 29.1365C126.799 29.7124 126.021 29.9996 125.049 29.9996C124.065 29.9996 123.281 29.7139 122.701 29.1409C122.12 28.5695 121.829 27.7812 121.829 26.776ZM123.206 26.7335C123.206 27.4471 123.38 27.9878 123.726 28.357C124.073 28.7248 124.513 28.9095 125.046 28.9095C125.581 28.9095 126.018 28.7263 126.361 28.3614C126.703 27.9951 126.874 27.4471 126.874 26.7159C126.874 25.9936 126.708 25.4543 126.374 25.0997C126.041 24.7436 125.599 24.5664 125.046 24.5664C124.495 24.5664 124.05 24.7466 123.712 25.1056C123.375 25.4661 123.206 26.0082 123.206 26.7335Z" fill="black"/>
<path d="M63.5146 26.776C63.5146 26.1342 63.6162 25.595 63.818 25.1583C63.9674 24.8374 64.1737 24.5488 64.434 24.2938C64.6943 24.0389 64.9792 23.8499 65.2888 23.7253C65.7015 23.5597 66.1774 23.4762 66.7164 23.4762C67.6929 23.4762 68.4722 23.7648 69.0589 24.3407C69.6442 24.918 69.9368 25.7196 69.9368 26.7467C69.9368 27.7651 69.6457 28.5622 69.0651 29.1365C68.4845 29.7124 67.7067 29.9996 66.7349 29.9996C65.7508 29.9996 64.9669 29.7139 64.3863 29.1409C63.8056 28.5695 63.5146 27.7812 63.5146 26.776ZM64.8914 26.7335C64.8914 27.4471 65.0655 27.9878 65.412 28.357C65.7585 28.7248 66.199 28.9095 66.7319 28.9095C67.2663 28.9095 67.7037 28.7263 68.0471 28.3614C68.389 27.9951 68.5599 27.4471 68.5599 26.7159C68.5599 25.9936 68.3936 25.4543 68.0594 25.0997C67.7268 24.7436 67.2847 24.5664 66.7319 24.5664C66.1805 24.5664 65.7354 24.7466 65.3981 25.1056C65.0608 25.4661 64.8914 26.0082 64.8914 26.7335Z" fill="black"/>
<path d="M147.855 27.8456L149.158 27.7226C149.236 28.1372 149.393 28.4405 149.632 28.6354C149.871 28.8303 150.193 28.927 150.598 28.927C151.026 28.927 151.349 28.8406 151.566 28.6677C151.784 28.4948 151.893 28.2926 151.893 28.061C151.893 27.9116 151.847 27.7856 151.756 27.68C151.665 27.5761 151.505 27.4852 151.277 27.409C151.121 27.3563 150.767 27.2654 150.213 27.1335C149.5 26.9635 148.999 26.7555 148.711 26.5079C148.306 26.1606 148.104 25.7371 148.104 25.2375C148.104 24.9166 148.2 24.6147 148.389 24.3348C148.58 24.055 148.854 23.8425 149.213 23.696C149.572 23.5495 150.003 23.4762 150.511 23.4762C151.339 23.4762 151.962 23.6506 152.38 24.0008C152.798 24.351 153.017 24.8169 153.039 25.4015L151.699 25.4455C151.642 25.1203 151.52 24.8873 151.334 24.7451C151.148 24.603 150.867 24.5312 150.495 24.5312C150.11 24.5312 149.808 24.6074 149.59 24.7598C149.45 24.858 149.379 24.9884 149.379 25.1525C149.379 25.3019 149.446 25.4294 149.578 25.5349C149.746 25.6712 150.154 25.8119 150.803 25.9584C151.451 26.1034 151.93 26.2559 152.239 26.4112C152.551 26.5679 152.794 26.7804 152.969 27.0515C153.145 27.3226 153.233 27.6566 153.233 28.0537C153.233 28.4142 153.128 28.7527 152.917 29.0677C152.706 29.3827 152.409 29.6172 152.024 29.7695C151.639 29.9234 151.158 29.9996 150.584 29.9996C149.748 29.9996 149.105 29.8164 148.657 29.4487C148.209 29.0823 147.943 28.5475 147.855 27.8456Z" fill="black"/>
<path d="M135.413 29.8858V23.591H136.71L139.433 27.8094V23.591H140.671V29.8858H139.333L136.652 25.7478V29.8858H135.413Z" fill="black"/>
<path d="M113.373 29.8858V23.591H114.713V29.8858H113.373Z" fill="black"/>
<path d="M103.143 29.8858V24.6547H101.184V23.591H106.433V24.6547H104.483V29.8858H103.143Z" fill="black"/>
<path d="M88.8627 23.591H90.2026V27.0021C90.2026 27.5443 90.2196 27.8945 90.2519 28.0541C90.3089 28.312 90.4429 28.5201 90.6555 28.6754C90.8695 28.8322 91.1606 28.9099 91.5302 28.9099C91.9045 28.9099 92.1879 28.8366 92.3788 28.6886C92.5698 28.5406 92.6838 28.3604 92.7223 28.145C92.7608 27.9296 92.7808 27.5736 92.7808 27.0753V23.591H94.1207V26.901C94.1207 27.6571 94.0853 28.1919 94.0129 28.504C93.9405 28.8161 93.8081 29.0798 93.614 29.2952C93.4215 29.5106 93.1627 29.6806 92.8393 29.8081C92.5143 29.9356 92.0924 30 91.5703 30C90.9404 30 90.4629 29.9312 90.1379 29.7919C89.813 29.6528 89.5558 29.4726 89.3663 29.2498C89.1769 29.0271 89.0537 28.7956 88.9936 28.5509C88.9059 28.1904 88.8627 27.6571 88.8627 26.9523V23.591Z" fill="black"/>
<path d="M77.1359 29.8859V23.6438H78.4758V28.8221H81.7931V29.8859H77.1359Z" fill="black"/>
<path d="M51.1577 27.8456L52.4606 27.7225C52.5391 28.1372 52.6962 28.4405 52.9349 28.6354C53.1736 28.8303 53.4955 28.927 53.9006 28.927C54.3287 28.927 54.6522 28.8405 54.8693 28.6676C55.0865 28.4947 55.1958 28.2925 55.1958 28.061C55.1958 27.9115 55.1496 27.7855 55.0587 27.68C54.9679 27.576 54.8077 27.4852 54.5798 27.4089C54.4242 27.3562 54.07 27.2653 53.5156 27.1335C52.8025 26.9635 52.3019 26.7554 52.014 26.5078C51.6089 26.1606 51.4072 25.7371 51.4072 25.2374C51.4072 24.9165 51.5027 24.6146 51.6921 24.3348C51.8831 24.0549 52.1572 23.8425 52.516 23.6959C52.8749 23.5494 53.3061 23.4761 53.8144 23.4761C54.6414 23.4761 55.2651 23.6505 55.6825 24.0007C56.1014 24.3509 56.3201 24.8169 56.3417 25.4015L55.0018 25.4455C54.9448 25.1202 54.8231 24.8872 54.6368 24.7451C54.4504 24.603 54.1701 24.5311 53.7974 24.5311C53.4124 24.5311 53.1105 24.6074 52.8933 24.7597C52.7532 24.8579 52.6823 24.9883 52.6823 25.1524C52.6823 25.3018 52.7486 25.4293 52.8811 25.5348C53.0489 25.6711 53.457 25.8118 54.1054 25.9583C54.7538 26.1034 55.2328 26.2558 55.5424 26.4111C55.8535 26.5678 56.0968 26.7803 56.2723 27.0514C56.4479 27.3225 56.5357 27.6566 56.5357 28.0536C56.5357 28.4141 56.431 28.7526 56.22 29.0677C56.009 29.3826 55.7117 29.6171 55.3267 29.7695C54.9417 29.9233 54.4612 29.9995 53.8867 29.9995C53.0504 29.9995 52.4082 29.8164 51.96 29.4486C51.5119 29.0823 51.2454 28.5475 51.1577 27.8456Z" fill="black"/>
</svg>
